<svg width="10" height="10" viewBox="0 0 10 10" fill="none" xmlns="http://www.w3.org/2000/svg">
<path fill-rule="evenodd" clip-rule="evenodd" d="M8.71228 9.77342C9.00518 10.0663 9.48005 10.0663 9.77294 9.77342C10.0658 9.48053 10.0658 9.00566 9.77294 8.71276L6.06065 5.00047L9.77293 1.28819C10.0658 0.995293 10.0658 0.52042 9.77293 0.227527C9.48004 -0.0653667 9.00517 -0.0653667 8.71228 0.227527L4.99999 3.93981L1.28766 0.227483C0.99477 -0.065411 0.519896 -0.0654107 0.227003 0.227483C-0.0658902 0.520376 -0.0658906 0.995249 0.227003 1.28814L3.93933 5.00047L0.226994 8.71281C-0.0658993 9.0057 -0.0658989 9.48057 0.226994 9.77347C0.519888 10.0664 0.994761 10.0664 1.28765 9.77347L4.99999 6.06113L8.71228 9.77342Z" fill="black"/>
</svg>
