<?xml version="1.0" standalone="no"?>
<!DOCTYPE svg PUBLIC "-//W3C//DTD SVG 20010904//EN"
 "http://www.w3.org/TR/2001/REC-SVG-20010904/DTD/svg10.dtd">
<svg version="1.0" xmlns="http://www.w3.org/2000/svg"
 width="940.000000pt" height="940.000000pt" viewBox="0 0 940.000000 940.000000"
 preserveAspectRatio="xMidYMid meet">
<metadata>
Created by potrace 1.14, written by Peter Selinger 2001-2017
</metadata>
<g transform="translate(0.000000,940.000000) scale(0.100000,-0.100000)"
fill="#000000" stroke="none">
<path d="M2209 8906 c-2 -2 -38 -7 -79 -10 -41 -4 -84 -9 -95 -11 -11 -3 -33
-7 -49 -10 -16 -2 -55 -10 -85 -16 -31 -6 -63 -13 -71 -14 -8 -2 -15 -4 -15
-5 0 -1 -11 -3 -24 -6 -14 -2 -45 -11 -70 -20 -25 -9 -53 -17 -61 -19 -53 -11
-187 -67 -319 -133 -200 -101 -191 -96 -191 -104 0 -5 -7 -8 -15 -8 -8 0 -15
-4 -15 -10 0 -5 -5 -10 -10 -10 -11 0 -111 -66 -120 -79 -3 -4 -22 -19 -43
-33 -95 -64 -321 -287 -402 -396 -5 -7 -17 -21 -25 -31 -8 -9 -28 -37 -45 -61
-16 -25 -33 -46 -37 -48 -5 -2 -8 -8 -8 -14 0 -5 -11 -24 -25 -42 -14 -18 -25
-36 -25 -40 0 -5 -9 -20 -19 -35 -26 -36 -113 -211 -146 -291 -14 -36 -30 -74
-34 -85 -19 -45 -66 -202 -75 -250 -1 -5 -5 -19 -9 -30 -3 -11 -8 -37 -12 -59
-3 -21 -7 -41 -9 -45 -2 -3 -7 -28 -10 -56 -4 -27 -9 -63 -12 -80 -16 -99 -20
-350 -28 -2018 -2 -494 -6 -901 -9 -903 -3 -3 -1 -18 3 -34 4 -16 6 -31 3 -33
-2 -3 -6 -436 -9 -964 -2 -527 -6 -1279 -9 -1670 -4 -666 -3 -713 13 -721 20
-9 1039 -8 1049 1 3 4 8 229 9 500 1 270 3 500 3 510 1 15 9 12 48 -20 27 -21
50 -40 53 -43 15 -15 168 -115 250 -163 203 -118 484 -239 670 -287 19 -5 53
-14 75 -20 39 -10 114 -26 165 -36 14 -3 50 -9 80 -15 57 -11 65 -12 210 -25
108 -10 4027 -11 4135 -1 154 14 246 28 372 54 16 3 35 7 43 8 8 1 22 5 30 8
8 3 40 13 70 21 107 29 156 44 224 70 39 15 75 25 82 22 7 -3 38 -40 70 -83
32 -43 61 -82 66 -88 5 -5 33 -44 64 -85 30 -41 61 -82 68 -90 6 -9 26 -36 43
-60 18 -25 42 -57 55 -72 13 -14 30 -36 38 -48 44 -66 25 -62 260 -60 118 0
414 2 658 3 243 1 442 3 442 5 0 7 -22 44 -35 60 -8 9 -46 60 -85 112 -39 52
-83 110 -98 129 -15 18 -31 40 -36 49 -5 8 -14 22 -22 31 -7 9 -27 34 -43 56
-17 22 -35 45 -40 51 -5 6 -26 35 -47 65 -21 30 -49 65 -61 79 -13 14 -23 28
-23 32 0 3 -6 13 -12 20 -7 7 -48 60 -91 118 -43 58 -88 118 -100 134 -29 39
-75 99 -85 111 -4 6 -19 26 -32 45 -14 19 -31 41 -37 48 -7 7 -13 15 -13 18 0
2 24 28 53 57 99 101 146 155 242 274 6 7 16 19 23 27 6 8 12 20 12 26 0 5 4
10 8 10 8 0 80 106 150 220 47 76 159 299 167 332 4 16 11 28 16 28 5 0 9 6 9
13 0 6 18 58 39 115 22 56 37 102 35 102 -3 0 0 9 6 21 6 11 13 29 15 39 2 10
13 52 24 92 23 84 30 117 45 208 3 14 6 25 7 25 1 0 3 11 4 25 2 14 6 43 9 65
16 103 28 281 28 405 0 98 -11 291 -18 323 -3 12 -7 42 -10 67 -3 25 -12 81
-20 125 -8 44 -17 91 -20 105 -3 14 -7 32 -10 40 -3 8 -8 26 -10 40 -3 14 -8
36 -13 50 -5 14 -19 59 -31 100 -12 41 -25 84 -30 95 -4 11 -24 62 -45 113
-24 59 -34 99 -29 110 4 9 8 19 9 22 1 3 8 19 15 35 7 17 14 35 16 40 1 6 19
57 40 115 37 104 60 182 70 230 3 14 7 33 10 42 3 9 7 27 9 40 3 13 9 43 14
68 13 57 22 116 26 160 2 19 6 50 9 68 10 50 17 184 17 317 1 164 -13 339 -37
465 -3 14 -7 38 -9 54 -2 15 -7 35 -9 45 -3 9 -8 30 -10 46 -3 17 -10 45 -15
63 -5 17 -8 32 -5 32 2 0 -2 17 -10 38 -7 20 -19 57 -26 82 -6 25 -16 53 -21
62 -5 10 -9 26 -9 36 0 10 -3 22 -7 25 -3 4 -14 28 -24 54 -9 27 -25 66 -35
88 -9 22 -19 45 -20 52 -1 7 -33 72 -72 145 -95 183 -106 203 -114 206 -5 2
-8 10 -8 18 0 8 -4 14 -9 14 -5 0 -13 9 -16 20 -3 11 -12 26 -18 32 -7 7 -25
33 -42 58 -16 25 -36 51 -42 58 -7 7 -13 16 -13 20 0 4 -22 32 -50 62 -27 30
-49 59 -50 63 0 12 -310 320 -355 353 -22 16 -42 31 -45 34 -38 38 -241 180
-258 180 -7 0 -12 4 -12 8 0 5 -12 15 -27 23 -16 7 -52 29 -80 47 -29 18 -53
30 -53 27 0 -4 -12 2 -27 12 -36 23 -156 80 -258 121 -60 25 -221 81 -250 87
-11 3 -45 12 -75 20 -80 23 -287 64 -351 70 -31 3 -67 9 -80 13 -25 7 -4622
15 -4630 8z m4461 -1071 c106 -8 136 -11 165 -18 11 -2 38 -8 60 -12 58 -12
53 -11 140 -35 136 -38 340 -130 455 -205 144 -94 355 -281 427 -380 42 -57
58 -77 76 -96 9 -11 17 -22 17 -27 0 -4 16 -31 35 -59 19 -29 35 -57 35 -63 0
-5 5 -10 11 -10 5 0 8 -4 5 -9 -4 -5 -3 -11 1 -13 13 -5 114 -233 129 -288 2
-8 11 -40 19 -70 24 -82 31 -112 40 -165 3 -16 7 -43 10 -60 13 -69 24 -286
17 -317 -6 -23 -12 -23 -44 5 -14 12 -36 30 -47 40 -12 9 -26 17 -31 17 -6 0
-10 4 -10 8 0 5 -12 15 -27 23 -16 8 -30 16 -33 19 -3 3 -27 20 -55 38 -27 17
-54 35 -60 39 -5 5 -30 18 -55 31 -25 13 -87 45 -138 72 -51 26 -96 49 -100
50 -4 1 -27 11 -52 22 -57 25 -76 33 -120 48 -19 7 -44 16 -55 20 -31 13 -159
55 -170 55 -5 1 -35 8 -65 17 -126 37 -301 66 -490 84 -106 10 -3981 10 -4106
1 -50 -4 -99 -9 -110 -11 -18 -3 -126 -19 -149 -21 -5 -1 -23 -4 -40 -8 -16
-4 -41 -8 -55 -11 -96 -16 -354 -91 -445 -130 -16 -7 -57 -24 -90 -37 -157
-62 -440 -223 -583 -332 -31 -24 -62 -46 -68 -50 -9 -5 -11 84 -9 336 4 354 6
399 30 507 3 14 8 35 11 48 8 38 67 196 82 220 8 12 12 22 9 22 -9 0 89 157
134 216 38 49 147 164 185 194 107 85 213 150 309 192 88 37 99 42 110 43 6 1
17 5 25 8 16 6 91 26 125 33 11 2 31 6 45 9 14 3 70 8 125 11 55 4 101 7 102
8 7 5 4199 -4 4273 -9z m70 -2309 c19 -3 46 -8 60 -11 14 -3 43 -8 65 -10 49
-7 195 -47 289 -81 77 -27 259 -115 264 -126 2 -5 8 -8 13 -8 14 0 151 -93
224 -152 71 -57 225 -211 225 -225 0 -12 -152 -166 -205 -208 -21 -16 -43 -35
-49 -41 -19 -18 -187 -129 -241 -159 -54 -30 -221 -105 -245 -110 -8 -2 -41
-13 -72 -24 -32 -11 -58 -17 -58 -14 0 3 -7 0 -15 -7 -8 -7 -15 -10 -15 -7 0
3 -15 1 -32 -4 -18 -6 -45 -12 -59 -13 -15 -2 -31 -6 -35 -9 -5 -3 -38 -8 -74
-11 -36 -4 -83 -9 -105 -12 -30 -5 -4555 -8 -5357 -5 l-146 1 29 78 c17 42 48
114 69 160 22 45 38 84 37 85 -1 1 4 9 11 17 20 23 102 152 102 161 0 4 3 9 8
11 4 2 33 36 65 76 80 100 263 278 300 291 5 2 23 15 38 28 15 14 31 24 35 23
4 -1 10 2 13 8 20 29 276 164 366 192 22 7 45 16 50 20 6 5 12 8 15 8 3 0 25
6 50 13 25 7 47 13 50 14 166 38 202 45 285 51 39 3 71 7 73 8 5 6 3939 -2
3972 -8z m1574 -1788 c-4 -149 -16 -252 -45 -378 -41 -178 -88 -299 -186 -485
-16 -31 -104 -166 -113 -175 -3 -3 -21 -25 -40 -50 -51 -68 -90 -104 -99 -94
-5 5 -126 167 -270 359 -144 193 -270 360 -281 371 -23 25 -27 22 105 64 93
29 253 88 288 107 16 8 38 16 49 18 12 3 28 11 38 20 9 8 20 15 24 15 10 0 79
32 86 39 3 4 19 13 35 21 54 26 237 140 285 177 8 6 35 27 60 47 25 19 50 35
55 35 7 1 10 -33 9 -91z m-2291 -548 c15 -16 27 -33 27 -36 0 -3 18 -28 40
-54 22 -26 40 -51 40 -54 0 -4 13 -21 30 -39 16 -18 30 -36 30 -40 0 -7 5 -14
35 -50 6 -7 37 -48 70 -92 32 -44 65 -87 73 -95 7 -8 49 -64 93 -125 44 -60
86 -115 92 -120 7 -6 19 -22 27 -36 8 -15 29 -44 47 -65 17 -22 68 -88 112
-149 44 -60 88 -119 98 -130 31 -36 65 -86 60 -91 -6 -6 -43 -14 -97 -20 -25
-3 -65 -10 -90 -14 -25 -5 -918 -9 -1985 -9 -1807 -1 -1990 1 -2140 24 -74 11
-192 41 -280 70 -98 32 -380 168 -405 195 -3 3 -36 28 -74 54 -38 27 -82 61
-98 75 -70 62 -186 180 -223 226 -22 28 -43 52 -46 55 -21 16 -139 211 -184
301 -46 92 -95 218 -95 241 0 4 1084 8 2408 8 l2409 0 26 -30z"/>
</g>
</svg>
